<?xml version="1.0" standalone="no"?>
<!DOCTYPE svg PUBLIC "-//W3C//DTD SVG 20010904//EN"
 "http://www.w3.org/TR/2001/REC-SVG-20010904/DTD/svg10.dtd">
<svg version="1.0" xmlns="http://www.w3.org/2000/svg"
 width="16.000000pt" height="16.000000pt" viewBox="0 0 16.000000 16.000000"
 preserveAspectRatio="xMidYMid meet">
<metadata>
Created by potrace 1.11, written by Peter Selinger 2001-2013
</metadata>
<g transform="translate(0.000000,16.000000) scale(0.002286,-0.002286)"
fill="#000000" stroke="none">
<path d="M3365 6981 c-50 -31 -989 -981 -1039 -1051 -92 -128 -164 -301 -192
-463 -35 -200 -13 -417 62 -604 76 -189 133 -263 464 -598 193 -194 299 -310
304 -327 11 -48 -18 -91 -163 -239 -205 -208 -302 -354 -372 -554 -69 -201
-85 -431 -44 -653 78 -426 409 -804 829 -948 63 -22 257 -63 296 -63 8 0 53 0
100 -1 311 -4 638 125 875 345 l70 65 6 -33 c8 -48 0 -180 -15 -252 -22 -104
-66 -207 -127 -299 -40 -59 -874 -906 -893 -906 -10 0 54 -64 -1074 1063 -497
496 -928 934 -957 973 -76 100 -174 293 -190 374 -2 8 -8 33 -13 55 -22 80
-24 103 -28 250 -3 167 10 269 53 395 33 99 104 241 156 314 23 33 166 185
317 338 151 153 282 291 292 307 10 15 20 42 22 59 4 40 -25 106 -57 127 -30
19 -92 26 -128 13 -39 -14 -573 -557 -651 -662 -106 -143 -217 -382 -242 -519
-2 -15 -7 -30 -9 -34 -3 -5 -8 -35 -11 -67 -4 -32 -9 -63 -12 -68 -11 -17 -7
-293 5 -373 39 -256 123 -460 279 -675 82 -113 2166 -2197 2206 -2207 87 -20
75 -31 599 495 268 268 501 505 518 527 114 146 191 321 224 514 15 83 15 298
0 366 -28 135 -54 213 -96 303 -78 163 -109 200 -470 561 -135 135 -251 256
-257 268 -17 31 -15 75 5 103 10 14 93 102 186 196 222 225 312 351 385 540
64 167 86 285 85 469 -1 619 -460 1142 -1083 1234 -69 11 -293 9 -365 -3 -170
-27 -373 -109 -520 -210 -78 -54 -91 -64 -199 -168 -50 -47 -92 -85 -94 -84
-8 9 -3 190 7 244 26 137 61 226 134 337 35 53 871 905 888 905 15 0 1985
-1982 2032 -2045 305 -409 308 -987 5 -1397 -34 -46 -181 -203 -329 -352 -190
-190 -271 -278 -280 -303 -23 -72 19 -154 90 -173 42 -11 67 -8 108 13 43 23
562 552 625 637 161 219 247 438 283 715 6 47 7 293 1 303 -2 4 -7 31 -10 61
-27 223 -138 482 -296 691 -32 41 -530 548 -1109 1126 -831 832 -1057 1053
-1082 1058 -50 10 -72 7 -104 -13z"/>
</g>
</svg>
