<?xml version="1.0" standalone="no"?>
<!DOCTYPE svg PUBLIC "-//W3C//DTD SVG 20010904//EN"
 "http://www.w3.org/TR/2001/REC-SVG-20010904/DTD/svg10.dtd">
<svg version="1.0" xmlns="http://www.w3.org/2000/svg"
 width="500.000000pt" height="500.000000pt" viewBox="0 0 500.000000 500.000000"
 preserveAspectRatio="xMidYMid meet">
<metadata>
Created by potrace 1.11, written by Peter Selinger 2001-2013
</metadata>
<g transform="translate(0.000000,500.000000) scale(0.100000,-0.100000)"
fill="#000000" stroke="none">
<path d="M3959 4624 c-117 -116 -118 -116 -150 -105 -48 17 -138 13 -184 -8
-52 -23 -103 -74 -126 -126 -21 -46 -25 -136 -8 -184 12 -33 11 -33 -87 -132
l-99 -99 -1117 0 c-1105 0 -1118 0 -1138 -20 -39 -39 -27 -70 75 -199 52 -67
95 -124 95 -126 0 -3 -27 -5 -60 -5 l-60 0 595 -747 595 -746 -2 -726 -3 -725
-370 -142 c-206 -80 -375 -150 -382 -160 -19 -26 -16 -71 7 -94 20 -20 33 -20
960 -20 927 0 940 0 960 20 23 23 26 68 7 94 -7 10 -176 80 -382 160 l-370
142 -3 725 -2 726 595 746 595 747 -60 0 c-33 0 -60 2 -60 5 0 2 43 59 95 126
102 129 114 160 75 199 -19 19 -33 20 -227 20 l-208 0 47 46 c44 45 47 46 78
35 49 -17 139 -13 185 8 52 23 103 74 126 126 21 46 25 136 8 184 -11 32 -11
33 105 150 99 100 116 123 116 149 0 19 -8 40 -20 52 -12 12 -33 20 -52 20
-26 0 -49 -17 -149 -116z m-172 -259 c34 -23 47 -76 29 -120 -34 -79 -141 -81
-180 -2 -16 34 -17 42 -4 75 24 64 94 86 155 47z m-727 -640 l-105 -105 -770
1 -770 0 -83 105 -83 104 958 0 958 0 -105 -105z m608 1 l-83 -105 -210 0
-210 -1 105 105 105 105 188 0 188 0 -83 -104z m-1098 -2408 c0 -638 2 -723
16 -739 8 -9 107 -52 220 -95 l204 -79 -255 -3 c-140 -1 -370 -1 -510 0 l-255
3 204 79 c113 43 212 86 220 95 14 16 16 101 16 739 l0 722 70 0 70 0 0 -722z"/>
<path d="M1400 4650 c-11 -11 -20 -33 -20 -50 0 -17 9 -39 20 -50 11 -11 33
-20 50 -20 17 0 39 9 50 20 11 11 20 33 20 50 0 17 -9 39 -20 50 -11 11 -33
20 -50 20 -17 0 -39 -9 -50 -20z"/>
<path d="M1994 4586 c-43 -19 -101 -82 -115 -123 -30 -92 7 -198 88 -253 31
-21 48 -25 113 -25 65 0 82 4 113 25 21 14 50 43 65 64 24 35 27 49 27 116 0
67 -3 81 -27 116 -44 63 -90 88 -167 91 -41 2 -78 -2 -97 -11z m109 -137 c53
-24 54 -94 1 -118 -50 -22 -105 33 -83 83 9 19 31 37 56 45 1 1 13 -4 26 -10z"/>
<path d="M700 4230 c-11 -11 -20 -33 -20 -50 0 -17 9 -39 20 -50 43 -43 120
-11 120 50 0 38 -32 70 -70 70 -17 0 -39 -9 -50 -20z"/>
<path d="M4200 4160 c-11 -11 -20 -33 -20 -50 0 -17 9 -39 20 -50 11 -11 33
-20 50 -20 17 0 39 9 50 20 11 11 20 33 20 50 0 17 -9 39 -20 50 -11 11 -33
20 -50 20 -17 0 -39 -9 -50 -20z"/>
<path d="M980 3250 c-11 -11 -20 -26 -20 -33 0 -7 -13 -18 -30 -24 -52 -20
-54 -106 -1 -126 16 -6 32 -22 38 -38 7 -17 21 -31 37 -35 41 -10 77 4 89 35
6 16 22 32 38 38 53 20 51 106 -1 126 -17 6 -30 17 -30 24 0 23 -39 53 -70 53
-17 0 -39 -9 -50 -20z"/>
</g>
</svg>
