<?xml version="1.0" encoding="UTF-8"?>
<svg width="127px" height="34px" viewBox="0 0 127 34" version="1.1" xmlns="http://www.w3.org/2000/svg" xmlns:xlink="http://www.w3.org/1999/xlink">
    <!-- Generator: Sketch 40 (33762) - http://www.bohemiancoding.com/sketch -->
    <title>Page 1</title>
    <desc>Created with Sketch.</desc>
    <defs></defs>
    <g id="Symbols" stroke="none" stroke-width="1" fill="none" fill-rule="evenodd">
        <g id="nav" transform="translate(-30.000000, -18.000000)">
            <g id="Group-5">
                <g transform="translate(30.000000, 18.000000)">
                    <g id="Page-1">
                        <g id="Group-3" transform="translate(123.371429, 5.014773)" fill="#085775">
                            <path d="M1.50905482,1.77151333 L1.91318696,1.77151333 C1.99482982,1.77151333 2.07488518,1.69422 2.07488518,1.54643333 C2.07579232,1.40159333 1.99573696,1.32384667 1.91318696,1.32384667 L1.50905482,1.32384667 L1.50905482,1.77151333 Z M1.92497982,1.03484667 C2.19576196,1.03484667 2.42935125,1.24587333 2.42776375,1.54779333 C2.42776375,1.76539333 2.30802089,1.93607333 2.14065304,2.01427333 L2.52891018,2.67546 L2.12477804,2.67546 L1.79888696,2.06074 L1.50905482,2.06074 L1.50905482,2.67546 L1.15572268,2.67546 L1.15572268,1.03484667 L1.92497982,1.03484667 Z M1.80047446,0.56202 C1.12873518,0.56202 0.569254821,1.12052667 0.569254821,1.85175333 C0.569254821,2.58320667 1.12873518,3.14352667 1.80047446,3.14352667 C2.47176018,3.14352667 3.03146732,2.58320667 3.03146732,1.85175333 C3.03146732,1.12052667 2.47176018,0.56202 1.80002089,0.56202 L1.80047446,0.56202 Z M3.41337446,1.85175333 C3.41337446,2.75978 2.69128875,3.4969 1.80002089,3.4969 C0.909206607,3.4969 0.187120893,2.75978 0.187120893,1.85175333 C0.187120893,0.943953333 0.909206607,0.207966667 1.80002089,0.207966667 C2.69128875,0.207966667 3.41337446,0.943953333 3.41337446,1.85175333 L3.41337446,1.85175333 Z" id="Fill-1"></path>
                        </g>
                        <path d="M29.7532198,14.0109693 L23.324752,3.09016933 C21.7333966,0.386942667 18.1492752,-0.571630667 15.3192162,0.949302667 L12.8257073,2.289356 C13.0463698,2.54412933 13.2497966,2.81726267 13.425102,3.115556 L20.476777,15.0967027 C21.1664323,16.2685693 21.1700609,17.721276 20.4860752,18.8967693 L13.4947252,30.9130493 C13.3207805,31.2122493 13.1187145,31.4862893 12.8996395,31.742196 L15.3997252,33.0697827 C18.237268,34.576436 21.816627,33.599956 23.3943752,30.888796 L29.7679609,19.936036 C30.8345341,18.103436 30.8288645,15.838356 29.7532198,14.0109693" id="Fill-4" fill="#50C1B2"></path>
                        <g id="Group-8" transform="translate(0.000000, 0.028107)" fill="#FFCE05">
                            <path d="M10.5793268,24.7226693 L14.6000107,17.8122827 C14.8986875,17.2995627 14.8968732,16.665576 14.5961554,16.154216 L10.5405464,9.26422933 C9.11429107,6.84116267 10.0144036,3.772096 12.550775,2.40914933 L12.8256393,2.261136 C11.0487732,0.206402667 7.9375,-0.407184 5.41949821,0.946016 L2.73798393,2.38716267 C0.153760714,3.776176 -0.763133929,6.90304267 0.689882143,9.37166933 L4.8021875,16.3584427 C5.03804464,16.7589627 5.03917857,17.2555893 4.8053625,17.6572427 L0.727982143,24.664416 C-0.712333929,27.140296 0.219982143,30.2626293 2.81123571,31.638496 L5.50000714,33.0662693 C8.02435893,34.406776 11.1329107,33.7780027 12.8995714,31.7142027 L12.6238,31.567776 C10.080625,30.217296 9.16531786,27.1527627 10.5793268,24.7226693" id="Fill-6"></path>
                        </g>
                        <path d="M20.4861659,18.8968147 C21.1701516,17.7213213 21.166523,16.2686147 20.4768677,15.0965213 L13.4251927,3.11560133 C13.2496605,2.817308 13.0462337,2.54417467 12.825798,2.28940133 L12.550707,2.437188 C10.0145623,3.80036133 9.11444982,6.869428 10.5404784,9.292268 L14.5960873,16.1824813 C14.8968052,16.6938413 14.8986195,17.3276013 14.5999427,17.840548 L10.5792587,24.750708 C9.16547661,27.1808013 10.0807837,30.2453347 12.623732,31.5958147 L12.8995034,31.7422413 C13.1188052,31.4863347 13.3206445,31.212068 13.4948159,30.9130947 L20.4861659,18.8968147 Z" id="Fill-9" fill="#2FAA99"></path>
                        <path d="M51.2459061,16.9718933 C51.2495346,14.4529467 50.1162864,12.6781467 48.1364471,12.6781467 C46.9666864,12.6781467 45.4556132,13.2575067 44.2418561,14.4858133 L44.2418561,19.3546133 C45.4764775,20.5933467 46.8943418,21.33296 48.1280561,21.3175467 C49.9028811,21.29556 51.2495346,19.8526 51.2459061,16.9718933 M54.2596614,16.9718933 C54.2485489,21.25068 51.6196489,23.87412 48.51019,23.8825067 C47.0744096,23.8895333 45.5442864,23.30496 44.2418561,22.08708 L44.2418561,28.7488133 L41.2974971,28.7488133 L41.2974971,10.4296133 L44.2418561,10.4296133 L44.2418561,11.97276 C45.5186596,10.7152133 47.046515,10.0630933 48.5675668,10.0630933 C51.9469007,10.0572 54.2501364,13.1249067 54.2596614,16.9718933" id="Fill-11" fill="#FFFFFF"></path>
                        <path d="M59.1436732,16.9718933 C59.1436732,19.4790533 60.5771857,21.24592 62.8466304,21.24592 C65.1401143,21.24592 66.5495875,19.5028533 66.5495875,16.9718933 C66.5495875,14.4409333 65.1401143,12.6980933 62.8466304,12.6980933 C60.5291071,12.6980933 59.1196339,14.4647333 59.1436732,16.9718933 M69.573775,16.9718933 C69.573775,20.7925867 66.9260518,23.88092 62.8466304,23.88092 C58.7941964,23.88092 56.1194857,20.7925867 56.1194857,16.9718933 C56.1194857,13.1249067 58.7941964,10.0368 62.8466304,10.0630933 C66.9260518,10.0630933 69.573775,13.1512 69.573775,16.9718933" id="Fill-13" fill="#FFFFFF"></path>
                        <path d="M74.9265302,19.562376 C74.9265302,20.9287227 75.7372891,21.381376 76.7308373,21.375936 C76.9857445,21.3741227 77.2597016,21.3353627 77.5443177,21.2653227 L78.3233266,23.356776 C77.5352462,23.6890693 76.6918302,23.8774293 75.893998,23.8794693 C73.8268462,23.8869493 71.9826248,22.723696 71.9826248,19.7709093 L71.9826248,5.195336 L74.9265302,5.195336 L74.9265302,19.562376 Z" id="Fill-15" fill="#FFFFFF"></path>
                        <path d="M103.548157,10.0547293 L103.044013,12.910956 C102.911116,12.8982627 102.772323,12.8941827 102.628088,12.8978093 C101.156929,12.8978093 99.4825698,13.5070893 98.096002,14.6855293 L98.096002,23.5144227 L95.1520966,23.5144227 L95.1520966,10.4291827 L98.096002,10.4291827 L98.096002,12.228236 C99.6131984,10.7911693 101.529764,10.0456627 103.197773,10.0456627 C103.315475,10.0456627 103.43227,10.0486093 103.548157,10.0547293" id="Fill-17" fill="#FFFFFF"></path>
                        <path d="M106.10283,23.5146267 L109.047189,23.5146267 L109.047189,10.4293867 L106.10283,10.4293867 L106.10283,23.5146267 Z M109.332032,6.80929333 C109.332032,7.76333333 108.545312,8.53672 107.575123,8.53672 C106.604707,8.53672 105.817987,7.76333333 105.817987,6.80929333 C105.817987,5.85548 106.604707,5.08232 107.575123,5.08232 C108.545312,5.08232 109.332032,5.85548 109.332032,6.80929333 L109.332032,6.80929333 Z" id="Fill-19" fill="#FFFFFF"></path>
                        <path d="M117.272548,10.0623907 C119.005418,10.0630707 121.032429,10.5426973 122.296532,11.7759907 L121.067581,13.6972173 C120.236184,12.871244 118.771829,12.437404 117.373014,12.4355907 C115.97987,12.4355907 115.010134,12.9192973 114.984961,13.9547107 C114.958427,14.7421507 115.517454,15.036364 117.715914,15.6009907 C119.856091,16.150884 122.733095,16.784644 122.742166,19.7471773 C122.751011,22.772724 119.712082,23.881124 117.084543,23.8802173 C114.97657,23.881124 112.818931,23.1655373 111.727184,21.808484 L112.957497,19.881364 C113.760545,20.9555373 115.412679,21.5172173 116.981356,21.520164 C118.611264,21.5172173 119.8096,20.879604 119.815497,19.7931907 C119.820939,18.700884 118.646189,18.5143373 116.905836,18.0517107 C113.591816,17.185164 112.07462,16.4108707 112.078248,14.1283373 C112.07462,11.1327107 114.671543,10.0630707 117.272548,10.062844 L117.272548,10.0623907 Z" id="Fill-21" fill="#FFFFFF"></path>
                        <path d="M89.1541814,16.884808 C89.1569029,19.5900747 87.2825189,21.1944213 85.2795475,21.1964613 C83.3046975,21.198728 82.3821332,19.663288 82.3794118,17.0591147 C82.3735154,11.192528 87.7633046,12.2109413 89.1505529,13.3449547 C89.1505529,13.3449547 89.1525939,15.4361813 89.1541814,16.884808 M79.3434314,17.062288 C79.3475136,20.9221947 81.4792993,23.824208 84.8153171,23.820808 C86.2706011,23.8192213 87.8218154,23.461088 89.1596243,22.1489147 L89.160985,23.4486213 L92.1150957,23.445448 L92.1035296,12.3775413 C92.1035296,12.3775413 89.5760029,9.945408 85.9882529,10.0088747 C83.1874493,10.0585147 79.3377618,11.629768 79.3434314,17.062288" id="Fill-22" fill="#FFFFFF"></path>
                    </g>
                </g>
            </g>
        </g>
    </g>
</svg>